<svg width="300" height="300" viewBox="0 0 300 300" fill="none" xmlns="http://www.w3.org/2000/svg">
  <path d="M239.1 197.7C239.1 171.3 226.8 154.2 205.2 145.2V144C222 136.5 232.8 119.1 232.8 99C232.8 64.5 213.3 41.7 174.9 38.1V7.5H147.6V37.5H127.8V7.5H100.5V37.5H60.9V72.9H87.9V227.1H60.9V262.5H100.5V292.5H127.8V262.5H147.6V292.5H174.9V261.9C219.9 258.6 239.1 234 239.1 197.7ZM128.1 72.9H162.6C183 72.9 192.3 84 192.3 101.7C192.3 120 183 130.5 162.6 130.5H128.1V72.9ZM159.3 227.1H128.1V164.4H161.4C184.5 164.4 197.7 172.2 197.7 195.9C198 220.2 185.1 227.1 159.3 227.1Z" fill="black" />
</svg>
  