<?xml version="1.0" encoding="UTF-8"?>
<svg width="300px" height="300px" enable-background="new 0 0 100 100" fill="#000000" version="1.1" viewBox="0 0 100 100" xml:space="preserve" xmlns="http://www.w3.org/2000/svg"><g transform="matrix(1.064 0 0 1.064 45.942 -3.2008)" fill="#000" stroke-width=".33333"><path class="a" d="m31.147 70.167 19 19h-18.667l-31.333-31.333h19.387a15.667 15.667 0 0 0 0-31.333h-6.32l-15.667-15.667h21.267a31.333 31.333 0 0 1 31.333 31.333c0 12.707-5.6 22.667-19 28z"/><path class="a" d="m-23.52 29.833-19-19h18.683l31.333 31.333h-19.387a15.667 15.667 0 1 0 0 31.333h6.3033l15.667 15.667h-21.267a31.333 31.333 0 0 1-31.333-31.333c0-12.707 5.6-22.667 19-28z"/></g></svg>
