<?xml version="1.0" encoding="UTF-8" standalone="no"?>
<svg
   xmlns:dc="http://purl.org/dc/elements/1.1/"
   xmlns:cc="http://creativecommons.org/ns#"
   xmlns:rdf="http://www.w3.org/1999/02/22-rdf-syntax-ns#"
   xmlns:svg="http://www.w3.org/2000/svg"
   xmlns="http://www.w3.org/2000/svg"
   id="svg18"
   preserveAspectRatio="xMidYMid"
   viewBox="-0.015 -0.015 2.8611111 2.8611111"
   height="300"
   width="300"
   version="1.1">
  <metadata
     id="metadata22">
    <rdf:RDF>
      <cc:Work
         rdf:about="">
        <dc:format>image/svg+xml</dc:format>
        <dc:type
           rdf:resource="http://purl.org/dc/dcmitype/StillImage" />
        <dc:title></dc:title>
      </cc:Work>
    </rdf:RDF>
  </metadata>
  <defs
     id="defs11">
    <filter
       id="symbol-shadow">
      <feGaussianBlur
         id="feGaussianBlur2"
         stdDeviation="1.3"
         result="blur-out"
         in="SourceAlpha" />
      <feMerge
         id="feMerge8">
        <feMergeNode
           id="feMergeNode4" />
        <feMergeNode
           id="feMergeNode6"
           in="SourceGraphic" />
      </feMerge>
    </filter>
    <linearGradient
       id="SVGID_2_"
       gradientUnits="userSpaceOnUse"
       x1="168.9458"
       y1="168.94479"
       x2="831.04279"
       y2="831.04187"
       gradientTransform="matrix(7.947533e-4,0,0,7.947533e-4,-0.2772007,0.12868865)">
      <stop
         offset="0"
         style="stop-color:#00A5BD"
         id="stop13" />
      <stop
         offset="1"
         style="stop-color:#005E78"
         id="stop15" />
    </linearGradient>
    <linearGradient
       id="SVGID_1_"
       gradientUnits="userSpaceOnUse"
       x1="853.54388"
       y1="853.52441"
       x2="146.4537"
       y2="146.4342"
       gradientTransform="matrix(7.947533e-4,0,0,7.947533e-4,-0.2772007,0.12868865)">
      <stop
         offset="0"
         style="stop-color:#377F94"
         id="stop6" />
      <stop
         offset="1"
         style="stop-color:#34ADC4"
         id="stop8" />
    </linearGradient>
    <linearGradient
       gradientTransform="matrix(7.9475307e-4,0,0,7.9475307e-4,0.2814429,0.2814429)"
       y2="146.4342"
       x2="146.4537"
       y1="853.52441"
       x1="853.54388"
       gradientUnits="userSpaceOnUse"
       id="SVGID_1_-2">
      <stop
         id="stop6-7"
         style="stop-color:#377F94"
         offset="0" />
      <stop
         id="stop8-6"
         style="stop-color:#34ADC4"
         offset="1" />
    </linearGradient>
    <linearGradient
       gradientTransform="matrix(7.9475307e-4,0,0,7.9475307e-4,0.2814429,0.2814429)"
       y2="831.04187"
       x2="831.04279"
       y1="168.94479"
       x1="168.9458"
       gradientUnits="userSpaceOnUse"
       id="SVGID_2_-4">
      <stop
         id="stop13-5"
         style="stop-color:#00A5BD"
         offset="0" />
      <stop
         id="stop15-7"
         style="stop-color:#005E78"
         offset="1" />
    </linearGradient>
    <linearGradient
       id="linearGradient2033"
       gradientUnits="userSpaceOnUse"
       x1="853.54388"
       y1="853.52441"
       x2="146.4537"
       y2="146.4342"
       gradientTransform="matrix(1.8518518,0,0,1.8518518,-9.2592593,-9.2592597)">
      <stop
         offset="0"
         style="stop-color:#377F94"
         id="stop2029" />
      <stop
         offset="1"
         style="stop-color:#34ADC4"
         id="stop2031" />
    </linearGradient>
    <linearGradient
       id="linearGradient2040"
       gradientUnits="userSpaceOnUse"
       x1="168.9458"
       y1="168.94479"
       x2="831.04279"
       y2="831.04187"
       gradientTransform="matrix(1.8518518,0,0,1.8518518,-9.2592593,-9.2592597)">
      <stop
         offset="0"
         style="stop-color:#00A5BD"
         id="stop2036" />
      <stop
         offset="1"
         style="stop-color:#005E78"
         id="stop2038" />
    </linearGradient>
  </defs>
  <g
     transform="translate(0,1.8311111)"
     id="g3352">
    <g
       transform="translate(0.08583338,-0.08583335)"
       id="g842">
      <circle
         r="1.2844276"
         cy="-0.3297222"
         cx="1.3297222"
         id="path2013"
         style="fill:none;fill-opacity:1;stroke:#000000;stroke-width:0.10151519;stroke-miterlimit:4;stroke-dasharray:none;stroke-opacity:1" />
      <path
         d="m 2.0856527,-0.78874268 h -0.021882 c -0.010207,0.0176824 -0.022179,0.0313515 -0.035925,0.0409733 -0.013762,0.00963 -0.029171,0.0160109 -0.046242,0.0191673 -0.017071,0.003142 -0.046819,0.004712 -0.089231,0.004712 h -0.205367 l -0.00136,-0.001656 c 0.025149,-0.0233758 0.085474,-0.0871267 0.1811397,-0.19146569 0.065231,-0.0711454 0.1123987,-0.13855503 0.141478,-0.20223893 0.018879,-0.040473 0.028297,-0.080971 0.028297,-0.1214665 0,-0.056611 -0.021713,-0.1057475 -0.065096,-0.1474208 -0.043383,-0.041669 -0.097487,-0.062499 -0.1622769,-0.062499 -0.06087,0 -0.1116394,0.019464 -0.1522725,0.058393 -0.040642,0.038929 -0.065876,0.094763 -0.075693,0.1674977 h 0.021781 c 0.014908,-0.04435 0.037944,-0.07801 0.069134,-0.100968 0.03119,-0.022952 0.066385,-0.034448 0.1056143,-0.034448 0.043146,0 0.080224,0.016299 0.1112109,0.048881 0.030987,0.032573 0.046488,0.074191 0.046488,0.1248257 0,0.066436 -0.028246,0.1397319 -0.084755,0.2199035 -0.041584,0.0590036 -0.1054386,0.13059199 -0.1914156,0.21469041 -0.09768,-0.0618206 -0.2122858,-0.0928471 -0.3439808,-0.0928471 -0.1663548,0 -0.3027996,0.050977 -0.40937101,0.15289696 -0.10656817,0.10191575 -0.15985089,0.22357405 -0.15985089,0.36500967 0,0.0925765 0.0233265,0.1770983 0.0700382,0.25353066 0.0466701,0.07646545 0.11360405,0.13598666 0.2008086,0.17861029 -0.10690823,0.0895101 -0.17513082,0.15871587 -0.20470391,0.2076132 -0.0295756,0.0489406 -0.0443656,0.0915897 -0.0443656,0.12797272 0,0.0322933 0.0111448,0.0611503 0.0334973,0.0866405 0.022316,0.02548 0.060508,0.0543794 0.11450989,0.0866345 -0.099007,0.10264121 -0.15213858,0.15864714 -0.15939856,0.16798726 -0.019309,0.0239358 -0.0371543,0.0467939 -0.0518747,0.0670473 0.0477561,0.0251067 0.0983194,0.047583 0.149287,0.0668351 -6.9483e-4,-0.005183 -0.001321,-0.0114121 -0.001321,-0.0167236 0,-0.0381988 0.0125177,-0.0800206 0.0376278,-0.12540605 0.0251067,-0.0454448 0.0622109,-0.0944652 0.11137048,-0.14710435 0.125742,0.0178861 0.3055606,0.0299854 0.5394624,0.0363067 0.1600412,0.004124 0.267103,0.0175127 0.321143,0.0402012 0.053013,0.0226545 0.079528,0.060777 0.079528,0.11439781 0,0.0110049 -8.786e-4,0.0205079 -0.00284,0.0313346 0.039879,-0.0207964 0.078425,-0.0438242 0.1158164,-0.0684133 5.538e-4,-0.008212 7.748e-4,-0.0148315 7.748e-4,-0.0231127 0,-0.0850139 -0.028899,-0.15652678 -0.0866,-0.21457247 C 1.9111288,0.48492261 1.8339107,0.44914964 1.7372115,0.4356494 1.6737533,0.4252894 1.5349276,0.41723728 1.3207302,0.41144213 1.2042536,0.40799965 1.1314544,0.40395391 1.102337,0.39934273 1.052421,0.39215773 1.018872,0.38031973 1.0017067,0.36384213 0.9845333,0.34739003 0.9759976,0.33042033 0.9759976,0.31290763 c 0,-0.0205673 0.008047,-0.0454958 0.0242073,-0.0748364 0.016147,-0.0293491 0.047159,-0.063577 0.092993,-0.1026743 0.073665,0.0210933 0.1458215,0.031623 0.2163883,0.031623 0.1711987,0 0.3076427,-0.0473879 0.409371,-0.14223236 0.10169,-0.0948029 0.1525567,-0.2088995 0.1525567,-0.34227961 0,-0.10631006 -0.024267,-0.1952932 -0.072622,-0.26702835 h 0.216245 z M 1.5218973,9.1158063e-4 C 1.4711495,0.05998309 1.4064432,0.08951545 1.3277818,0.08951545 c -0.082854,0 -0.1511932,-0.03418545 -0.2050049,-0.1026412 -0.070416,-0.09015491 -0.1056228,-0.21714678 -0.1056228,-0.38096883 0,-0.12646072 0.025862,-0.22024883 0.077636,-0.28143732 0.051783,-0.0611503 0.115987,-0.0917407 0.1926035,-0.0917407 0.082821,0 0.1506637,0.0342194 0.2034556,0.10263527 0.071434,0.093296 0.1071747,0.22236326 0.1071747,0.38717125 -2.7e-6,0.1264972 -0.025378,0.21930617 -0.076127,0.27837766063 z"
         id="path19-3"
         style="fill:#010000;fill-opacity:1;stroke:none;stroke-width:0.00266238;stroke-opacity:1" />
    </g>
  </g>
</svg>
