<svg width="300" height="300" viewBox="0 0 300 300" fill="none" xmlns="http://www.w3.org/2000/svg">
   <path d="M150 284.678C224.381 284.678 284.678 224.381 284.678 150C284.678 75.6195 224.381 15.3222 150 15.3222C75.6195 15.3222 15.3221 75.6195 15.3221 150C15.3221 224.381 75.6195 284.678 150 284.678Z" stroke="black" stroke-width="10.6443" />
   <path d="M229.263 101.87H226.968C225.898 103.724 224.643 105.157 223.201 106.166C221.758 107.176 220.143 107.845 218.353 108.176C216.563 108.505 213.443 108.67 208.996 108.67H187.463L187.32 108.496C189.957 106.045 196.282 99.3605 206.313 88.4201C213.153 80.9602 218.099 73.892 221.148 67.2145C223.128 62.9707 224.115 58.7243 224.115 54.4782C224.115 48.5423 221.838 43.3901 217.289 39.0205C212.741 34.6513 207.068 32.4672 200.274 32.4672C193.892 32.4672 188.568 34.5081 184.308 38.59C180.046 42.6718 177.4 48.5263 176.371 56.1528H178.655C180.218 51.5025 182.633 47.9731 185.904 45.5659C189.174 43.1593 192.864 41.9539 196.978 41.9539C201.502 41.9539 205.39 43.6629 208.639 47.0792C211.888 50.4947 213.513 54.8585 213.513 60.1678C213.513 67.1339 210.552 74.8193 204.626 83.2256C200.266 89.4124 193.571 96.9187 184.556 105.737C174.313 99.2547 162.296 96.0014 148.488 96.0014C131.045 96.0014 116.738 101.347 105.563 112.033C94.3892 122.72 88.8022 135.476 88.8022 150.306C88.8022 160.013 91.2481 168.876 96.1461 176.89C101.04 184.908 108.058 191.149 117.202 195.618C105.992 205.004 98.8385 212.26 95.7376 217.387C92.6365 222.519 91.0857 226.991 91.0857 230.806C91.0857 234.192 92.2543 237.218 94.598 239.89C96.938 242.562 100.943 245.592 106.605 248.974C96.2236 259.737 90.6525 265.609 89.8913 266.589C87.8666 269.098 85.9955 271.495 84.452 273.619C89.4594 276.251 94.7612 278.608 100.105 280.627C100.033 280.083 99.9668 279.43 99.9668 278.873C99.9668 274.868 101.279 270.483 103.912 265.724C106.545 260.959 110.435 255.819 115.59 250.299C128.775 252.175 147.629 253.443 172.155 254.106C188.936 254.539 200.162 255.942 205.828 258.321C211.387 260.697 214.167 264.694 214.167 270.317C214.167 271.47 214.075 272.467 213.869 273.602C218.051 271.422 222.092 269.007 226.013 266.429C226.071 265.568 226.094 264.874 226.094 264.005C226.094 255.091 223.064 247.593 217.014 241.506C210.963 235.419 202.866 231.668 192.727 230.253C186.073 229.166 171.517 228.322 149.057 227.714C136.844 227.353 129.211 226.929 126.158 226.446C120.924 225.692 117.406 224.451 115.606 222.723C113.805 220.998 112.91 219.219 112.91 217.383C112.91 215.226 113.754 212.612 115.449 209.536C117.142 206.458 120.394 202.869 125.199 198.77C132.924 200.982 140.489 202.086 147.889 202.086C165.84 202.086 180.146 197.117 190.813 187.172C201.476 177.231 206.809 165.268 206.809 151.282C206.809 140.135 204.265 130.805 199.195 123.283H221.869L229.263 101.87ZM170.15 184.668C164.829 190.862 158.045 193.959 149.797 193.959C141.109 193.959 133.943 190.374 128.301 183.197C120.917 173.743 117.226 160.428 117.226 143.25C117.226 129.99 119.938 120.156 125.366 113.74C130.796 107.328 137.528 104.121 145.562 104.121C154.246 104.121 161.359 107.709 166.895 114.883C174.385 124.665 178.133 138.198 178.133 155.479C178.132 168.743 175.472 178.475 170.15 184.668H170.15Z" fill="#010000" />
</svg>
   