<svg width="300" height="300" viewBox="0 0 300 300" fill="none" xmlns="http://www.w3.org/2000/svg">
  <path d="M92.8711 83.9648L75.3516 167.988L57.5391 180.234C47.754 186.973 39.6094 192.656 39.4922 192.832C39.1407 193.418 30.9375 239.18 31.1719 239.355C31.2891 239.473 38.8477 234.434 47.9883 228.164C57.129 221.895 64.6875 216.855 64.8047 216.973C64.9805 217.09 50.4493 287.285 48.1641 297.539L47.5782 300L153.106 299.883L258.574 299.707L264.316 272.168C267.481 256.992 270.059 244.277 270.117 243.867C270.117 243.34 255.352 243.164 198.047 243.164C148.008 243.164 125.977 242.988 125.977 242.52C125.977 242.227 129.668 224.355 134.18 202.852C140.977 170.391 142.559 163.594 143.555 162.773C144.199 162.246 163.477 149.004 186.328 133.301C209.238 117.656 227.93 104.766 227.93 104.707C227.93 104.59 230.156 93.9258 232.91 80.8594C235.664 67.8516 237.832 56.9531 237.773 56.7188C237.656 56.4844 218.613 69.3164 195.469 85.3125C172.324 101.25 153.223 114.199 153.106 114.082C152.93 113.848 162.773 66.5039 176.016 3.63281L176.836 0H143.613H110.449L92.8711 83.9648Z" fill="currentColor" />
</svg>
  