<?xml version="1.0" standalone="no"?><!DOCTYPE svg PUBLIC "-//W3C//DTD SVG 20010904//EN" "http://www.w3.org/TR/2001/REC-SVG-20010904/DTD/svg10.dtd"><svg version="1.0" xmlns="http://www.w3.org/2000/svg" width="300px" height="300px" viewBox="0 0 512.000000 512.000000" preserveAspectRatio="xMidYMid meet"><g transform="translate(0.000000,512.000000) scale(0.100000,-0.100000)" fill="#000000" stroke="none"><path d="M1585 3687 l-299 -1434 -304 -209 c-167 -115 -306 -212 -308 -215 -6 -10 -146 -791 -142 -794 2 -2 131 84 287 191 156 107 285 193 287 191 3 -2 -245 -1200 -284 -1375 l-10 -42 1801 2 1800 3 98 470 c54 259 98 476 99 483 0 9 -252 12 -1230 12 -854 0 -1230 3 -1230 11 0 5 63 310 140 677 116 554 143 670 160 684 11 9 340 235 730 503 391 267 710 487 710 488 0 2 38 184 85 407 47 222 84 408 83 412 -2 4 -327 -215 -722 -488 -395 -272 -721 -493 -723 -491 -3 4 165 812 391 1885 l14 62 -567 0 -566 0 -300 -1433z"/></g></svg>