<?xml version="1.0" encoding="UTF-8"?>
<svg viewBox="0 0 22 22" version="1.1" xmlns="http://www.w3.org/2000/svg" xmlns:xlink="http://www.w3.org/1999/xlink">
    <!-- Generator: Sketch 53.2 (72643) - https://sketchapp.com -->
    <title>Artboard</title>
    <desc>Created with Sketch.</desc>
    <g id="Artboard" stroke="none" stroke-width="1" fill="none" fill-rule="evenodd">
        <path d="M17.78975,7.2545 C17.785625,7.2545 17.785625,7.250375 17.7815,7.250375 C17.765,7.242125 17.75675,7.233875 17.74025,7.22975 C17.732,7.2215 17.719625,7.21325 17.703125,7.209125 C17.699,7.209125 17.699,7.209125 17.694875,7.205 C13.56575,5.5385 8.94575,6.722375 7.7,7.09775 C6.2975,5.031125 3.13775,5.786 2.993375,5.823125 L2.51075,5.946875 L3.971,8.958125 L2.267375,11.0825 L1.0505,11.243375 L1.0505,16.05725 L4.791875,18.3425 L5.654,21.20525 L8.809625,21.20525 L9.370625,19.955375 L13.43375,19.534625 L13.97,21.201125 L16.935875,21.201125 L18.363125,17.298875 C18.849875,16.886375 20.97425,14.96825 20.95775,12.36125 C20.94125,10.533875 19.872875,8.817875 17.78975,7.2545 Z M17.760875,16.729625 L17.670125,16.79975 L16.366625,20.3885 L14.559875,20.3885 L14.007125,18.651875 L8.809625,19.188125 L8.2775,20.3885 L6.2645,20.3885 L5.484875,17.802125 L1.86725,15.59525 L1.86725,11.961125 L2.696375,11.84975 L4.93625,9.0695 L3.69875,6.5285 C4.593875,6.417125 6.413,6.375875 7.159625,7.77425 C7.167875,7.786625 7.18025,7.803125 7.192625,7.8155 C7.192625,7.819625 7.19675,7.827875 7.200875,7.832 C7.2215,7.860875 7.2545,7.885625 7.283375,7.90625 C7.2875,7.9145 7.291625,7.918625 7.299875,7.92275 C7.32875,7.943375 7.357625,7.959875 7.39475,7.968125 C7.39475,7.968125 7.398875,7.968125 7.398875,7.97225 C7.436,7.984625 7.473125,7.98875 7.51025,7.98875 C7.514375,7.98875 7.514375,7.992875 7.5185,7.992875 C7.522625,7.992875 7.52675,7.992875 7.530875,7.98875 C7.572125,7.98875 7.60925,7.9805 7.646375,7.97225 C7.6505,7.97225 7.6505,7.97225 7.6505,7.97225 C7.70825,7.9475 12.914,6.186125 17.340125,7.943375 C19.179875,9.329375 20.1245,10.8185 20.136875,12.365375 C20.1575,14.840375 17.78975,16.709 17.760875,16.729625 Z" id="Shape" stroke="currentcolor" stroke-width="0.5" fill="currentcolor" fill-rule="nonzero"></path>
        <path d="M9.354125,5.79577148 C9.3995,5.79577148 9.444875,5.78752148 9.494375,5.77102148 C9.70475,5.69264648 9.812,5.45752148 9.733625,5.24302148 C9.618125,4.93364648 9.55625,4.60364648 9.552125,4.26539648 C9.53975,3.46102148 9.840875,2.70614648 10.39775,2.12864648 C10.954625,1.55114648 11.70125,1.22939648 12.5015,1.21702148 C14.15975,1.17577148 15.521,2.51227148 15.54575,4.16227148 C15.554,4.51702148 15.500375,4.86352148 15.389,5.19352148 C15.310625,5.40802148 15.417875,5.63902148 15.6365,5.71739648 C15.846875,5.79164648 16.077875,5.67614648 16.15625,5.46577148 C16.300625,5.04089648 16.374875,4.59952148 16.366625,4.14989648 C16.3295,2.04614648 14.601125,0.375521478 12.485,0.400271478 C11.466125,0.416771478 10.517375,0.829271478 9.807875,1.56352148 C9.1025,2.29364648 8.71475,3.25889648 8.735375,4.27777148 C8.743625,4.70677148 8.822,5.12752148 8.9705,5.52764648 C9.024125,5.69264648 9.185,5.79577148 9.354125,5.79577148 Z" id="Path" stroke="currentcolor" stroke-width="0.5" fill="currentcolor" fill-rule="nonzero"></path>
    </g>
</svg>
